<svg width="223" height="31" viewBox="0 0 223 31" fill="none" xmlns="http://www.w3.org/2000/svg">
<path d="M9.328 22.128V30H0.88V0H14.08C16.64 0 18.704 0.367999 20.272 1.104C21.872 1.808 23.024 2.96 23.728 4.56C24.464 6.16 24.832 8.256 24.832 10.848C24.832 14.72 24.016 17.568 22.384 19.392C20.784 21.216 18.256 22.128 14.8 22.128H9.328ZM9.328 15.936H13.744C14.576 15.936 15.152 15.792 15.472 15.504C15.824 15.216 16 14.688 16 13.92V8.976C16 8.208 15.824 7.68 15.472 7.392C15.152 7.104 14.576 6.96 13.744 6.96H9.328V15.936ZM38.1842 30.672C36.0082 30.672 34.1522 30.432 32.6163 29.952C31.0802 29.472 29.8162 28.736 28.8242 27.744C27.8642 26.72 27.1442 25.408 26.6642 23.808C26.2162 22.176 25.9922 20.24 25.9922 18C25.9922 15.728 26.2162 13.792 26.6642 12.192C27.1442 10.56 27.8642 9.248 28.8242 8.256C29.8162 7.232 31.0802 6.496 32.6163 6.048C34.1522 5.568 36.0082 5.328 38.1842 5.328C40.3603 5.328 42.2163 5.568 43.7522 6.048C45.2882 6.496 46.5363 7.232 47.4963 8.256C48.4883 9.248 49.2083 10.56 49.6563 12.192C50.1043 13.792 50.3283 15.728 50.3283 18C50.3283 20.24 50.1043 22.176 49.6563 23.808C49.2083 25.408 48.4883 26.72 47.4963 27.744C46.5363 28.736 45.2882 29.472 43.7522 29.952C42.2163 30.432 40.3603 30.672 38.1842 30.672ZM35.0642 24.24H39.3363C40.1043 24.24 40.6163 24.16 40.8722 24C41.1602 23.808 41.3042 23.456 41.3042 22.944V11.76H37.0323C36.2643 11.76 35.7363 11.856 35.4483 12.048C35.1923 12.208 35.0642 12.544 35.0642 13.056V24.24ZM71.6429 30L66.6989 6H72.8909L76.1549 22.656H76.6349L79.5149 6H87.7709L82.9229 30H71.6429ZM55.7069 30L50.8589 6H59.1149L61.9949 22.656H62.4749L65.6909 6H71.9309L66.9389 30H55.7069ZM100.173 30.672C98.0925 30.672 96.3005 30.432 94.7965 29.952C93.2925 29.472 92.0605 28.72 91.1005 27.696C90.1405 26.672 89.4205 25.36 88.9405 23.76C88.4925 22.16 88.2685 20.24 88.2685 18C88.2685 14.992 88.6845 12.56 89.5165 10.704C90.3805 8.848 91.6925 7.488 93.4525 6.624C95.2445 5.76 97.5485 5.328 100.365 5.328C103.181 5.328 105.373 5.568 106.941 6.048C108.509 6.528 109.613 7.344 110.253 8.496C110.925 9.648 111.261 11.232 111.261 13.248C111.261 14.752 111.021 16.016 110.541 17.04C110.093 18.032 109.341 18.832 108.285 19.44C107.229 20.048 105.805 20.48 104.013 20.736C102.221 20.992 99.9965 21.12 97.3405 21.12H95.9005V16.704H100.173C101.485 16.704 102.381 16.56 102.861 16.272C103.373 15.952 103.629 15.376 103.629 14.544V11.568H100.797C99.4845 11.568 98.5725 11.712 98.0605 12C97.5805 12.288 97.3405 12.832 97.3405 13.632V24.144C97.7885 24.24 98.3005 24.32 98.8765 24.384C99.4845 24.416 100.237 24.432 101.133 24.432C102.477 24.432 103.837 24.336 105.213 24.144C106.589 23.92 108.045 23.6 109.581 23.184L110.637 29.088C109.069 29.6 107.405 29.984 105.645 30.24C103.885 30.528 102.061 30.672 100.173 30.672ZM119.155 6L121.555 9.312C122.611 8.256 123.715 7.408 124.867 6.768C126.019 6.096 127.235 5.6 128.515 5.28L129.091 13.488C128.579 13.552 127.939 13.712 127.171 13.968C126.403 14.224 125.683 14.512 125.011 14.832C124.339 15.12 123.811 15.408 123.427 15.696V30H114.979V6H119.155Z" fill="#666666"/>
<path d="M128.339 30L136.307 0H149.411L157.379 30H148.931L143.075 8.064H142.643L136.787 30H128.339ZM133.667 24.768V18.576H152.051V24.768H133.667ZM159.162 0H171.882C174.602 0 176.826 0.24 178.554 0.719999C180.314 1.168 181.706 1.952 182.73 3.072C183.754 4.16 184.474 5.68 184.89 7.632C185.306 9.584 185.514 12.048 185.514 15.024C185.514 17.968 185.306 20.416 184.89 22.368C184.474 24.32 183.754 25.856 182.73 26.976C181.706 28.096 180.314 28.88 178.554 29.328C176.826 29.776 174.602 30 171.882 30H159.162V0ZM167.61 6.624V23.376H172.698C174.106 23.376 175.082 23.152 175.626 22.704C176.17 22.224 176.442 21.392 176.442 20.208V9.792C176.442 8.608 176.17 7.792 175.626 7.344C175.082 6.864 174.106 6.624 172.698 6.624H167.61ZM188.127 30L189.999 0H200.703L205.167 16.992H205.503L209.967 0H220.719L222.591 30H214.191L213.231 13.248H212.895L208.575 30H202.095L197.727 13.248H197.439L196.527 30H188.127Z" fill="#E66E00"/>
</svg>
